<mxfile host="app.diagrams.net" modified="2023-06-27T07:49:12.710Z" agent="Mozilla/5.0 (Windows NT 10.0; Win64; x64) AppleWebKit/537.36 (KHTML, like Gecko) Chrome/114.0.0.0 Safari/537.36" etag="6eY3lEdaTHOnvozfXBlH" version="21.5.0" type="github">
  <diagram name="Trang-1" id="-TMG5wRtHB3KvAYoaKKq">
    <mxGraphModel dx="1434" dy="800" grid="0" gridSize="10" guides="1" tooltips="1" connect="1" arrows="1" fold="1" page="0" pageScale="1" pageWidth="827" pageHeight="1169" math="0" shadow="0">
      <root>
        <mxCell id="0" />
        <mxCell id="1" parent="0" />
      </root>
    </mxGraphModel>
  </diagram>
</mxfile>
